<?xml version="1.0" encoding="UTF-8"?>
<svg id="Layer_2" data-name="Layer 2" xmlns="http://www.w3.org/2000/svg" viewBox="0 0 2303.26 496.35">
  <g id="heart_line">
    <path fill="currentColor" d="M652.03,496.35c-2.85,0-5.69-.01-8.55-.04-83.17-.76-169.37-12.63-256.21-35.27C191.43,409.98,52.67,321.14,2.11,285.31c-2.25-1.59-2.78-4.71-1.19-6.96,1.59-2.25,4.71-2.78,6.96-1.19,50.12,35.51,187.67,123.57,381.91,174.21,86.05,22.43,171.43,34.19,253.78,34.95,93.87.83,184.45-12.63,269.2-40.11,21.51-6.97,44.67-17.77,67.76-31.56-13.41-1.02-26.14-2.55-38.36-4.61-48.64-8.2-90.64-25.17-128.4-51.89-22.47-15.9-41.19-38.03-52.73-62.31-12.56-26.43-16.12-53.87-10.3-79.36,4.8-21.02,16.74-41.02,33.61-56.31s37.95-25.2,59.34-27.91c37.83-4.79,76.75,12.98,100.02,44.23,2.72-33.74,20.77-57.11,29.35-66.45,21.09-22.93,48.79-36.48,76-37.17,6.51-.16,13.05.38,19.52,1.59,6.88-19.96,18.46-37.13,34.14-50.16,23.35-19.41,53.41-27.79,82.47-22.99,60.08,9.94,90.86,53.85,97.98,98.28,18.71-42.27,58.33-70.13,103.54-70.36.17,0,.35,0,.52,0,56.51,0,105.6,47.05,109.55,105.12,8.5,125.05-149.22,209.7-210.71,231.76-8.7,3.12-17.29,6.1-25.78,8.93,25.71,12.36,52.04,22.49,75.67,28.95,95.47,26.1,199.18,41.12,308.24,44.63,95.84,3.08,193.02-2.68,288.85-17.12,84.29-12.7,163.88-31.77,230.17-55.12,61.41-21.64,108.14-46.01,131.57-68.62,1.99-1.91,5.14-1.86,7.06.13,1.91,1.98,1.86,5.14-.13,7.06-52.23,50.4-199.79,101.21-367.18,126.43-96.43,14.53-194.22,20.33-290.66,17.23-109.84-3.53-214.33-18.67-310.55-44.98-26.57-7.26-56.9-19.06-86.73-34.1-55.46,17.73-105.64,28.94-146.8,32.71-38.4,3.52-71.81,4.67-101.82,3.44-27.18,17.5-55.33,31.33-82.15,40.03-83.19,26.97-171.92,40.63-263.82,40.63ZM1012.35,406.04c26.33.43,55-.85,86.56-3.74,38.11-3.49,84.19-13.51,135.19-29.29-42.08-22.63-81.92-51.45-107.26-82.76-.45-.55-.89-1.11-1.34-1.66-12.57,21.05-28.63,41.78-47.95,61.84-19.69,20.45-41.93,39.31-65.21,55.61ZM856.1,141.47c-3.72,0-7.44.23-11.15.7-39.98,5.06-75.5,37.25-84.47,76.54-5.32,23.28-2,48.48,9.58,72.86,10.81,22.76,28.38,43.51,49.48,58.44,48.56,34.37,102.89,52.07,175.64,55.49,48.56-31.74,95.21-76.12,123.73-125.42-16.9-22.45-30.26-45.72-39.8-69.34-12.44-30.78-18.43-62.31-17.81-93.74.23-11.51,1.72-22.54,4.41-32.93-5.44-.95-10.93-1.37-16.38-1.23-24.52.62-49.64,13-68.91,33.95-9.13,9.93-30.02,37.29-26.71,76.68.2,2.37-1.31,4.55-3.59,5.21-2.29.66-4.72-.39-5.81-2.51-17.22-33.35-52.37-54.73-88.2-54.73ZM1130.84,279.25c1.23,1.58,2.49,3.15,3.76,4.72,20.15,24.89,51.76,50.14,91.41,73,7.04,4.06,14.27,7.99,21.59,11.76,11.49-3.72,23.21-7.72,35.12-12,31.14-11.17,82.78-37.04,125.84-73.17,25.15-21.11,44.59-43.38,57.79-66.19,15.5-26.79,22.4-54.49,20.5-82.33-3.6-52.94-48.23-95.82-99.59-95.82-.16,0-.31,0-.47,0-49.28.25-91.33,36.73-102.27,88.7-.54,2.55-2.95,4.26-5.54,3.92-2.59-.34-4.47-2.63-4.32-5.23,2.77-47.88-24.54-104.43-91.07-115.43-26.2-4.33-53.34,3.25-74.46,20.81-14.01,11.65-24.43,26.98-30.76,44.84,15.99,4.71,31.2,13.49,43.97,25.66,21.05,20.08,33.37,46.81,34.7,75.29,1.37,29.36-5.63,59.98-20.78,91.02-1.7,3.49-3.5,6.97-5.4,10.45ZM1075.43,86.36c-2.54,9.71-3.95,20.05-4.16,30.85-1.03,52.53,16.76,104.02,52.93,153.28,15.55-29.72,24.31-61,22.85-92.25-1.21-25.9-12.43-50.24-31.62-68.53-11.64-11.1-25.49-19.09-40-23.35Z"/>
  </g>
</svg>